<svg xmlns="http://www.w3.org/2000/svg" width="12.5" height="15.608" viewBox="0 0 12.5 15.608">
  <g id="Raggruppa_3599" data-name="Raggruppa 3599" transform="translate(-417.75 -115.25)">
    <path id="Shape" d="M6,0A6.124,6.124,0,0,0,0,6.2a6.712,6.712,0,0,0,1.706,4.4L6,15l4.279-4.391A6.7,6.7,0,0,0,12,6.2,6.125,6.125,0,0,0,6,0ZM9.32,9.661,6,13.066,2.669,9.647A5.33,5.33,0,0,1,1.333,6.2,4.786,4.786,0,0,1,6,1.368,4.787,4.787,0,0,1,10.667,6.2,5.323,5.323,0,0,1,9.32,9.661Z" transform="translate(418 115.5)" fill="#193458" stroke="#193458" stroke-width="0.5"/>
    <path id="Shape-2" data-name="Shape" d="M6.5,5A1.5,1.5,0,1,0,8,6.5,1.5,1.5,0,0,0,6.5,5Z" transform="translate(417.5 115)" fill="#193458"/>
  </g>
</svg>
