<svg id="mail" xmlns="http://www.w3.org/2000/svg" width="24" height="24" viewBox="0 0 24 24">
  <g id="Tracciato_872" data-name="Tracciato 872" transform="translate(0 23)" fill="none">
    <path d="M0,0H24V1H0Z" stroke="none"/>
    <path d="M 0 0 L 24 0 L 24 1 L 0 1 L 0 0 Z" stroke="none" fill="rgba(0,47,86,0)"/>
  </g>
  <path id="Tracciato_885" data-name="Tracciato 885" d="M0,0H24V24H0Z" fill="none"/>
  <g id="Raggruppa_4473" data-name="Raggruppa 4473" transform="translate(6831 -10248)">
    <g id="Tracciato_877" data-name="Tracciato 877" transform="translate(-6828 10269)" fill="none" stroke-linecap="square" fill-rule="evenodd">
      <path d="M18-13.4v8.8A1.66,1.66,0,0,1,16.286-3H1.714A1.66,1.66,0,0,1,0-4.6v-8.8A1.66,1.66,0,0,1,1.714-15H16.286A1.66,1.66,0,0,1,18-13.4Z" stroke="none"/>
      <path d="M 1.714279174804688 -13.49999904632568 C 1.573810577392578 -13.49999904632568 1.504940032958984 -13.42130851745605 1.5 -13.39999961853027 L 1.500019073486328 -4.598798751831055 C 1.504940032958984 -4.578688621520996 1.573810577392578 -4.499999046325684 1.714290618896484 -4.499999046325684 L 16.28570938110352 -4.499999046325684 C 16.42618942260742 -4.499999046325684 16.49505996704102 -4.578688621520996 16.5 -4.59999942779541 L 16.49998092651367 -13.40119934082031 C 16.49505996704102 -13.42130851745605 16.42618942260742 -13.49999904632568 16.28570938110352 -13.49999904632568 L 1.714279174804688 -13.49999904632568 M 1.714279174804688 -14.99999904632568 L 16.28570938110352 -14.99999904632568 C 17.23249053955078 -14.99999904632568 18 -14.28365898132324 18 -13.39999961853027 L 18 -4.59999942779541 C 18 -3.716339111328125 17.23249053955078 -2.999999046325684 16.28570938110352 -2.999999046325684 L 1.714290618896484 -2.999999046325684 C 0.7675094604492188 -2.999999046325684 0 -3.716339111328125 0 -4.59999942779541 L 0 -13.39999961853027 C 0 -14.28365898132324 0.7675094604492188 -14.99999904632568 1.714279174804688 -14.99999904632568 Z" stroke="none" fill="#193458"/>
    </g>
    <g id="Raggruppa_4472" data-name="Raggruppa 4472">
      <path id="Tracciato_878" data-name="Tracciato 878" d="M-6827,10255l8,6.073" fill="none" stroke="#193458" stroke-width="1.5"/>
      <path id="Tracciato_879" data-name="Tracciato 879" d="M-6820.227,10254l-7.773,5.973" transform="translate(9 1.101)" fill="none" stroke="#193458" stroke-linecap="round" stroke-width="1.5"/>
    </g>
  </g>
</svg>
